<svg width="16" height="16" xmlns="http://www.w3.org/2000/svg">
<title>list-unordered</title>
<desc>Created with Sketch.</desc>
<g fill="#C5C5C5">
<path d="m2 13c0 0.59 0 1-0.59 1h-0.82c-0.59 0-0.59-0.41-0.59-1s0-1 0.59-1h0.81c0.59 0 0.59 0.41 0.59 1h0.01zm2.59-9h6.81c0.59 0 0.59-0.41 0.59-1s0-1-0.59-1h-6.81c-0.59 0-0.59 0.41-0.59 1s0 1 0.59 1zm-3.18 3h-0.82c-0.59 0-0.59 0.41-0.59 1s0 1 0.59 1h0.81c0.59 0 0.59-0.41 0.59-1s0-1-0.59-1h0.01zm0-5h-0.82c-0.59 0-0.59 0.41-0.59 1s0 1 0.59 1h0.81c0.59 0 0.59-0.41 0.59-1s0-1-0.59-1h0.01zm10 5h-6.82c-0.59 0-0.59 0.41-0.59 1s0 1 0.59 1h6.81c0.59 0 0.59-0.41 0.59-1s0-1-0.59-1h0.01zm0 5h-6.82c-0.59 0-0.59 0.41-0.59 1s0 1 0.59 1h6.81c0.59 0 0.59-0.41 0.59-1s0-1-0.59-1h0.01z"/>
</g>
</svg>
